<svg xmlns="http://www.w3.org/2000/svg" viewBox="0 0 220 420">
<path d="M108 180 C106 245 104 315 105 400" stroke="#3b8f55" stroke-width="14" fill="none"/>
<path d="M106 300 C70 270 38 286 28 330 C62 325 91 317 108 296" fill="#55a85f"/>
<path d="M108 390 C80 350 53 346 30 370 C57 392 83 403 108 400" fill="#438e52"/>
<path d="M108 215 C53 207 20 164 29 82 C67 100 91 127 108 160 C125 127 151 100 188 82 C197 164 163 207 108 215Z" fill="#f6b936"/>
<path d="M108 207 C93 151 99 89 108 35 C117 89 123 151 108 207Z" fill="#ffd76b"/>
</svg>